<?xml version="1.0" encoding="utf-8"?>
<svg width="500" height="500" version="1.2" baseProfile="tiny-ps" xmlns="http://www.w3.org/2000/svg">
  <title>magodelaweb</title>
  <g fill="#333">
    <path d="m22.656 377.21v-38.529h5.841v5.4056q1.814-2.8298 4.8251-4.5349 3.0112-1.7414 6.8568-1.7414 4.281 0 7.0019 1.7777 2.7572 1.7777 3.8819 4.9703 4.5712-6.748 11.9-6.748 5.7321 0 8.8159 3.1926 3.0837 3.1563 3.0837 9.7591v26.448h-6.494v-24.271q0-3.9182-.65303-5.6233-.61675-1.7414-2.2856-2.7935t-3.9182-1.0521q-4.0633 0-6.748 2.7209-2.6847 2.6847-2.6847 8.6345v22.384h-6.5303v-25.033q0-4.3535-1.5963-6.5303-1.5963-2.1768-5.2242-2.1768-2.7572 0-5.1154 1.4512-2.3219 1.4512-3.374 4.2447-1.0521 2.7935-1.0521 8.054v19.99zm87.034-4.7526q-3.6279 3.0837-7.0019 4.3535-3.3377 1.2698-7.1833 1.2698-6.3489 0-9.7591-3.0837-3.4103-3.12-3.4103-7.9452 0-2.8298 1.2698-5.1517 1.3061-2.3582 3.374-3.773 2.1042-1.4149 4.7163-2.1405 1.9228-.50791 5.8047-.97954 7.9089-.94326 11.646-2.2493.0363-1.3423.0363-1.7051 0-3.9907-1.8502-5.6233-2.5033-2.213-7.4373-2.213-4.6075 0-6.8205 1.6326-2.1768 1.5963-3.2289 5.6958l-6.3852-.8707q.8707-4.0996 2.8661-6.6028 1.9954-2.5396 5.7684-3.8819 3.773-1.3786 8.7433-1.3786 4.934 0 8.0177 1.1609 3.0837 1.1609 4.5349 2.9386 1.4512 1.7414 2.0316 4.4261.32652 1.6688.32652 6.0224v8.707q0 9.1061.39907 11.537.43535 2.3944 1.6688 4.6075h-6.8205q-1.0158-2.0316-1.3061-4.7526zm-.54419-14.584q-3.5554 1.4512-10.666 2.467-4.027.58047-5.6958 1.306-1.6688.72559-2.5758 2.1405-.90698 1.3786-.90698 3.0837 0 2.6121 1.9591 4.3535 1.9954 1.7414 5.8047 1.7414 3.773 0 6.7117-1.6326 2.9386-1.6688 4.3172-4.5349 1.0521-2.213 1.0521-6.5303zm15.528 22.529 6.3489.94326q.39907 2.9386 2.213 4.281 2.4307 1.814 6.6391 1.814 4.5349 0 7.0019-1.814 2.467-1.814 3.3377-5.0791.50791-1.9954.47163-8.3805-4.281 5.0428-10.666 5.0428-7.9452 0-12.299-5.7321-4.3535-5.7321-4.3535-13.75 0-5.5144 1.9954-10.158 1.9954-4.68 5.7684-7.2196 3.8093-2.5396 8.9247-2.5396 6.8205 0 11.247 5.5144v-4.6438h6.0224v33.304q0 8.9973-1.8502 12.734-1.814 3.773-5.8047 5.9498-3.9544 2.1768-9.7591 2.1768-6.8931 0-11.138-3.12-4.2447-3.0837-4.0996-9.3238zm5.4056-23.146q0 7.5824 3.0112 11.065 3.0112 3.4828 7.5461 3.4828 4.4986 0 7.5461-3.4465 3.0475-3.4828 3.0475-10.884 0-7.0745-3.1563-10.666-3.12-3.5916-7.5461-3.5916-4.3535 0-7.401 3.5554-3.0475 3.5191-3.0475 10.485zm34.683.68931q0-10.702 5.9498-15.854 4.9703-4.281 12.117-4.281 7.9452 0 12.988 5.2242 5.0428 5.1879 5.0428 14.367 0 7.4372-2.2493 11.718-2.213 4.2447-6.494 6.6028-4.2447 2.3582-9.2875 2.3582-8.0903 0-13.097-5.1879-4.9703-5.1879-4.9703-14.947zm6.7117 0q0 7.401 3.2289 11.101 3.2289 3.6642 8.1266 3.6642 4.8614 0 8.0903-3.7005 3.2288-3.7005 3.2288-11.283 0-7.147-3.2651-10.811-3.2289-3.7005-8.054-3.7005-4.8977 0-8.1266 3.6642t-3.2289 11.065z" />
    <path d="m40.178 337.31c-2.6376 0-5.0152.60099-7.1016 1.8066-.000469.00027-.0015-.00026-.002 0-.000736.00043-.0012.002-.002.002-1.6364.92722-2.9484 2.1724-4.0762 3.5879v-4.5254h-6.8398v39.527h7.5293v-20.488c0-3.4737.35657-6.1134 1.0215-7.8789.66834-1.7746 1.7148-3.0852 3.168-3.9941l.002-.002c1.4974-.92092 3.1001-1.375 4.8496-1.375 2.3186 0 3.8649.66716 4.8223 1.9727.97019 1.323 1.5 3.3931 1.5 6.2344v25.531h7.5293v-22.883c0-3.8913.87988-6.6221 2.5391-8.2812v-.002h.002c1.7012-1.7242 3.7953-2.5723 6.3926-2.5723 1.4216 0 2.6236.32725 3.6504.97461 1.0308.64985 1.7077 1.4801 2.082 2.5371l.004.012c.3896 1.0173.61914 2.861.61914 5.4453v24.77h7.4941v-26.947c0-4.4784-1.0483-7.8766-3.2246-10.105l-.002-.002c-2.1633-2.2384-5.2588-3.3438-9.1719-3.3438-4.7904 0-8.754 2.2049-11.814 6.3691-.81256-1.8574-2.0001-3.4162-3.6953-4.5098l-.002-.002c-1.9142-1.2499-4.3513-1.8574-7.2734-1.8574zm60.66 0c-3.3597 0-6.3342.46485-8.916 1.4082h.0059c-2.583.91893-4.5958 2.2632-5.9941 4.043-1.3902 1.7449-2.3708 4.0209-2.9629 6.8086l-.11133.52539 7.3594 1.0039.11133-.43164c.68464-2.6678 1.7215-4.4498 3.0391-5.416h.002v-.002c1.342-.98998 3.5108-1.5332 6.5234-1.5332 3.2146 0 5.5587.71855 7.1055 2.0859v.002c1.0819.95466 1.6816 2.6648 1.6816 5.248 0 .175-.0128.73214-.0273 1.3144-2.4351.81108-6.14 1.5376-11.213 2.1426h-.002c-2.5994.31582-4.5458.64212-5.8711.99219l-.0039.002h-.0039c-1.7888.49689-3.4119 1.2324-4.8613 2.207v.002l-.002.002c-1.445.98867-2.6249 2.3105-3.5293 3.9434h-.002v.002c-.88755 1.6229-1.3301 3.4293-1.3301 5.3906 0 3.3346 1.2041 6.1478 3.5723 8.3144v.002h.002c2.388 2.1594 5.7802 3.2129 10.094 3.2129 2.6188 0 5.0766-.43352 7.3613-1.3027 2.124-.79971 4.3069-2.1759 6.541-3.9922.23392 1.5108.54553 2.9543 1.1426 4.1484l.13867.27539h7.9805l-.41406-.74219c-.79583-1.4278-1.3327-2.9069-1.6133-4.4453v-.002c-.2498-1.5225-.39258-5.3907-.39258-11.453v-8.709c0-2.9148-.10253-4.9242-.33594-6.1172v-.006l-.002-.004c-.4001-1.8504-1.1069-3.4044-2.1328-4.6367-1.0434-1.2782-2.6357-2.2954-4.7461-3.0898-2.1381-.80493-4.8648-1.1934-8.1934-1.1934zm39.217 0c-3.493 0-6.5757.87272-9.2012 2.623l-.002.002c-2.5995 1.7497-4.5872 4.2429-5.9492 7.4375-1.3586 3.1618-2.0352 6.6189-2.0352 10.355 0 5.4356 1.4848 10.14 4.4551 14.051 2.991 3.9381 7.2802 5.9297 12.697 5.9297 3.9445 0 7.3182-1.5013 10.098-4.2988-.0288 3.2348-.12839 5.9883-.38867 7.0117-8e-5.00029 7e-5.002 0 .002-.55655 2.0823-1.5981 3.6608-3.1484 4.8008-1.5269 1.1227-3.7485 1.7168-6.7051 1.7168-2.7338 0-4.8322-.58825-6.3418-1.7148v-.002c-1.0832-.80154-1.7618-2.0782-2.0156-3.9473l-.0508-.37109-7.2812-1.082-.0117.5664c-.0994 4.2752 1.343 7.5886 4.3047 9.7402 2.9336 2.1554 6.762 3.2148 11.432 3.2148 3.9315 0 7.2715-.73784 9.998-2.2383 2.7369-1.4928 4.7584-3.5585 6.0137-6.166 1.3043-2.6342 1.9024-6.9226 1.9024-12.955v-33.805h-7.0215v3.9258c-2.9006-3.1238-6.4928-4.7969-10.748-4.7969zm42.773 0c-4.8645 0-9.0401 1.471-12.443 4.4024-4.0961 3.5466-6.123 9.0048-6.123 16.232 0 6.591 1.6875 11.721 5.1094 15.293l.002.002c3.4311 3.5555 7.9547 5.3398 13.455 5.3398 3.4392 0 6.6265-.80758 9.5293-2.4199 2.9331-1.6157 5.1784-3.8953 6.6973-6.8086h-.002c1.555-2.9595 2.3066-6.9426 2.3066-11.951 0-6.21-1.7197-11.149-5.1836-14.713-3.453-3.5772-7.9413-5.377-13.348-5.377zm-142.65 1c2.7848 0 5.0151.57587 6.7285 1.6953l.002.002h.002c1.7496 1.128 2.9648 2.6818 3.6816 4.7168l.32812.93554.55664-.82226c2.9779-4.3959 6.7542-6.5274 11.486-6.5274 3.7286 0 6.5068 1.022 8.4551 3.0391l.002.002c1.934 1.9795 2.9414 5.0861 2.9414 9.4102v25.947h-5.4943v-23.77c0-2.6373-.20548-4.5406-.68555-5.7969-.44859-1.2618-1.2941-2.2914-2.4863-3.043-1.1983-.75545-2.6061-1.1289-4.1836-1.1289-2.8189 0-5.2237.96558-7.1016 2.8672-1.9204 1.9204-2.832 4.9465-2.832 8.9883v21.883h-5.5293v-24.531c0-2.9635-.53516-5.2468-1.6934-6.8262-1.171-1.5968-3.1103-2.3809-5.6289-2.3809-1.9259 0-3.7308.51236-5.377 1.5254h-.002v.002c-1.6414 1.0259-2.844 2.543-3.5781 4.4922-.73789 1.9592-1.084 4.6901-1.084 8.2305v19.488h-5.5292v-37.527h4.8398v6.6113l.92188-1.4356c1.1661-1.8191 2.7087-3.2716 4.6504-4.3711h.002l.002-.002c1.9276-1.1148 4.1172-1.6738 6.6055-1.6738zm60.66 0c3.2501 0 5.8683.38594 7.8418 1.1289 2.0013.75342 3.4328 1.6951 4.3242 2.7871v.002l.002.002c.9064 1.0877 1.5521 2.4806 1.9258 4.2051.2017 1.0328.31641 3.0339.31641 5.9219v8.709c0 6.078.12403 9.8982.40625 11.617v.004l.002.004c.25332 1.3933.80972 2.7167 1.4531 4.0176h-5.7422c-.58121-1.2399-1.0027-2.6458-1.1797-4.3047l-.0488-.44726h-.63281l-.14063.11914c-2.3861 2.0282-4.6738 3.4453-6.8535 4.2656v.002h-.002c-2.1655.82382-4.4972 1.2363-7.0059 1.2363-4.1504 0-7.2629-1.002-9.4219-2.9531l-.002-.002c-2.1774-1.993-3.2441-4.4763-3.2441-7.5742 0-1.8111.40213-3.4357 1.207-4.9082v-.002c.83619-1.5093 1.9046-2.7023 3.2148-3.5996l.0039-.002c1.3545-.91024 2.8749-1.5982 4.5664-2.0684.000872-.00024.0011-.002.002-.002 1.2383-.32659 3.157-.65235 5.7285-.96485 5.2903-.63095 9.1925-1.3808 11.752-2.2754l.32617-.11328.008-.34375c.0242-.89611.0371-1.4602.0371-1.7188 0-2.7378-.63448-4.7759-2.0195-5.998-1.791-1.5833-4.4035-2.3379-7.7676-2.3379-3.1307 0-5.5084.54173-7.1172 1.7285-1.4916 1.0938-2.5339 3.004-3.2539 5.5508l-5.4121-.73828c.57588-2.4105 1.4276-4.3973 2.6055-5.875l.002-.002v-.002c1.2621-1.6063 3.0952-2.8479 5.543-3.7188h.002l.002-.002c2.4489-.89478 5.305-1.3477 8.5723-1.3477zm39.217 0c4.4122 0 7.9852 1.7496 10.857 5.3281l.89062 1.1074v-5.5644h5.0215v32.805c0 5.9639-.63614 10.164-1.7988 12.512v.002l-.002.002c-1.1635 2.4202-3.0119 4.3202-5.5938 5.7285h-.002c-2.5458 1.4013-5.7103 2.1152-9.5176 2.1152-4.52 0-8.1161-1.0199-10.842-3.0234h-.002c-2.5606-1.8603-3.8091-4.6047-3.8535-8.334l5.4277.80664c.32687 1.842 1.0558 3.316 2.2969 4.2344 1.7311 1.291 4.0612 1.9121 6.9375 1.9121 3.0899 0 5.5344-.61617 7.2969-1.9121 1.7374-1.2775 2.9206-3.0854 3.5254-5.3535v-.002l.002-.004c.37076-1.4566.51059-4.2355.48633-8.5059l-.008-1.3496-.87304 1.0293c-2.7746 3.2684-6.16 4.8652-10.285 4.8652-5.1765 0-9.0866-1.8284-11.9-5.5332-2.8344-3.732-4.252-8.1926-4.252-13.447 0-3.616.65318-6.9311 1.9551-9.9609v-.002c1.2982-3.0449 3.1553-5.3636 5.5859-7 2.4536-1.6357 5.319-2.4551 8.6465-2.4551zm42.773 0c5.1872 0 9.3582 1.6839 12.629 5.0723h.002c3.2592 3.353 4.9004 7.99 4.9004 14.018 0 4.9078-.74731 8.7379-2.1914 11.486v.002c-1.4318 2.7462-3.5182 4.868-6.293 6.3965h-.002c-2.7563 1.5313-5.761 2.2949-9.0449 2.2949-5.2866 0-9.4921-1.6734-12.736-5.0352-3.2039-3.3455-4.8301-8.1797-4.8301-14.6 0-7.0423 1.9403-12.154 5.7773-15.477 3.2233-2.7754 7.1252-4.1582 11.789-4.1582zm-42.301 4.4062c-3.0384 0-5.673 1.269-7.7812 3.7285-2.1373 2.4694-3.168 6.0952-3.168 10.811 1e-5 5.1211 1.008 8.9349 3.1328 11.393 2.0887 2.4158 4.7745 3.6562 7.9258 3.6562 3.1268 0 5.8074-1.2261 7.9199-3.6152v-.002h.002c2.1472-2.454 3.1719-6.2103 3.1719-11.213 0-4.7894-1.0688-8.4775-3.2793-10.994l-.002-.002c-2.1564-2.4813-4.8368-3.7617-7.9219-3.7617zm42.301 0c-3.3898 0-6.2645 1.2951-8.5 3.832-2.263 2.5681-3.3555 6.3898-3.3555 11.396 0 5.0067 1.0924 8.8383 3.3535 11.43v.002h.002c2.2355 2.5369 5.1102 3.834 8.5 3.834 3.3678 0 6.2344-1.3104 8.4688-3.8711 2.2638-2.5945 3.3516-6.4854 3.3516-11.611 0-4.8383-1.1069-8.5774-3.3887-11.141l-.004-.004c-2.2331-2.5571-5.085-3.8672-8.4277-3.8672zm-42.301 1c2.8155 0 5.1647 1.1119 7.168 3.418l.002.002v.002c1.9967 2.2722 3.0332 5.694 3.0332 10.336 0 4.8645-1.0084 8.3609-2.9238 10.551-1.9508 2.2062-4.2985 3.2793-7.1699 3.2793-2.8953 0-5.2417-1.0826-7.168-3.3105-1.89-2.1861-2.8906-5.7496-2.8906-10.738 0-4.5708 1.001-7.9336 2.9258-10.156l.002-.002c1.9551-2.2809 4.2552-3.3809 7.0215-3.3809zm42.301 0c3.089 0 5.6063 1.1553 7.6777 3.5293l.004.004c2.0693 2.3222 3.1387 5.79 3.1387 10.479 0 4.9839-1.0641 8.6136-3.1055 10.953-2.0708 2.3733-4.6008 3.5293-7.7148 3.5293-3.1404 0-5.6803-1.1454-7.75-3.4941-2.0433-2.3426-3.1055-5.911-3.1055-10.771 0-4.8613 1.0633-8.4168 3.1055-10.734 2.0697-2.3487 4.6096-3.4941 7.75-3.4941zm-73.182 13.412-.68945.28125c-2.3001.9388-5.8298 1.7614-10.549 2.4356-2.7041.38979-4.6215.81888-5.8242 1.3418-1.1894.51711-2.1342 1.2987-2.793 2.3242-.65668.99815-.99024 2.132-.99024 3.3574 0 1.8664.72812 3.4851 2.127 4.7285l.002.002h.002c1.449 1.2646 3.5171 1.8652 6.1328 1.8652 2.5875 0 4.9166-.56281 6.9551-1.6953l.002-.002h.002c2.0368-1.1567 3.5587-2.7523 4.5215-4.7539v-.002c.75553-1.5892 1.1016-3.8254 1.1016-6.7442zm-1 1.4141v1.7246c0 2.8376-.35663 4.953-1.0039 6.3145-.8746 1.8175-2.2311 3.2446-4.1094 4.3125-1.8797 1.0443-4.0255 1.5703-6.4687 1.5703-2.4613 0-4.2612-.55968-5.4727-1.6152-1.2133-1.0785-1.791-2.3641-1.791-3.9805 0-1.0481.27158-1.9686.82422-2.8086l.004-.004c.55042-.85866 1.3196-1.5036 2.3535-1.9531 1.0224-.44452 2.9032-.88535 5.5684-1.2695 4.4-.62858 7.6802-1.3948 10.096-2.291z" fill="#badf43" />
    <path d="m233.51 377.21v-4.8614q-3.6642 5.7321-10.775 5.7321-4.6075 0-8.4894-2.5396-3.8456-2.5396-5.9861-7.0745-2.1042-4.5712-2.1042-10.485 0-5.7684 1.9228-10.448 1.9228-4.7163 5.7684-7.2196 3.8456-2.5033 8.5982-2.5033 3.4828 0 6.2038 1.4874 2.721 1.4512 4.4261 3.8093v-19.083h6.494v53.185zm-20.643-19.228q0 7.401 3.12 11.065t7.3647 3.6642q4.281 0 7.2559-3.4828 3.0112-3.5191 3.0112-10.702 0-7.9089-3.0475-11.609t-7.5098-3.7005q-4.3535 0-7.2921 3.5554-2.9024 3.5554-2.9024 11.21zm63.344 6.8205 6.748.83443q-1.5963 5.9135-5.9135 9.1787t-11.029 3.2651q-8.4531 0-13.423-5.1879-4.934-5.2242-4.934-14.621 0-9.7228 5.0065-15.092 5.0065-5.3693 12.988-5.3693 7.7275 0 12.625 5.2605 4.8977 5.2605 4.8977 14.802 0 .58047-.0363 1.7414h-28.733q.36279 6.3489 3.5916 9.7229 3.2289 3.374 8.054 3.374 3.5916 0 6.1312-1.8865 2.5396-1.8865 4.027-6.0224zm-21.441-10.557h21.514q-.43535-4.8614-2.467-7.2921-3.12-3.773-8.0903-3.773-4.4986 0-7.5824 3.0112-3.0475 3.0112-3.374 8.054zm36.243 22.965v-53.185h6.5303v53.185zm41.794-4.7526q-3.6279 3.0837-7.0019 4.3535-3.3377 1.2698-7.1833 1.2698-6.3489 0-9.7591-3.0837-3.4103-3.12-3.4103-7.9452 0-2.8298 1.2698-5.1517 1.306-2.3582 3.374-3.773 2.1042-1.4149 4.7163-2.1405 1.9228-.50791 5.8047-.97954 7.9089-.94326 11.646-2.2493.0363-1.3423.0363-1.7051 0-3.9907-1.8502-5.6233-2.5033-2.213-7.4373-2.213-4.6075 0-6.8205 1.6326-2.1768 1.5963-3.2288 5.6958l-6.3852-.8707q.8707-4.0996 2.8661-6.6028 1.9954-2.5396 5.7684-3.8819 3.773-1.3786 8.7433-1.3786 4.934 0 8.0177 1.1609 3.0837 1.1609 4.5349 2.9386 1.4512 1.7414 2.0316 4.4261.32652 1.6688.32652 6.0224v8.707q0 9.1061.39907 11.537.43535 2.3944 1.6688 4.6075h-6.8205q-1.0158-2.0316-1.3061-4.7526zm-.54419-14.584q-3.5554 1.4512-10.666 2.467-4.027.58047-5.6958 1.306-1.6688.72559-2.5758 2.1405-.90698 1.3786-.90698 3.0837 0 2.6121 1.9591 4.3535 1.9954 1.7414 5.8047 1.7414 3.773 0 6.7117-1.6326 2.9386-1.6688 4.3172-4.5349 1.0521-2.213 1.0521-6.5303zm23.836 19.337-11.791-38.529h6.748l6.1312 22.239 2.2856 8.2717q.14512-.61675 1.9954-7.9452l6.1312-22.566h6.7117l5.7684 22.348 1.9228 7.3647 2.213-7.4372 6.6028-22.275h6.3489l-12.045 38.529h-6.7842l-6.1312-23.074-1.4874-6.5666-7.8 29.64zm72.921-12.408 6.748.83443q-1.5963 5.9135-5.9135 9.1787t-11.029 3.2651q-8.4531 0-13.423-5.1879-4.934-5.2242-4.934-14.621 0-9.7228 5.0065-15.092 5.0066-5.3693 12.988-5.3693 7.7275 0 12.625 5.2605 4.8977 5.2605 4.8977 14.802 0 .58047-.0363 1.7414h-28.733q.36279 6.3489 3.5916 9.7229 3.2289 3.374 8.054 3.374 3.5916 0 6.1312-1.8865 2.5396-1.8865 4.027-6.0224zm-21.441-10.557h21.514q-.43536-4.8614-2.467-7.2921-3.12-3.773-8.0903-3.773-4.4986 0-7.5824 3.0112-3.0475 3.0112-3.374 8.054zm42.41 22.965h-6.0586v-53.185h6.5303v18.974q4.1358-5.1879 10.557-5.1879 3.5554 0 6.7117 1.4512 3.1926 1.4149 5.2242 4.027 2.0679 2.5758 3.2289 6.24 1.1609 3.6642 1.1609 7.8363 0 9.9042-4.8977 15.31-4.8977 5.4056-11.754 5.4056-6.8205 0-10.702-5.6958zm-.0725-19.555q0 6.9294 1.8865 10.013 3.0837 5.0428 8.3442 5.0428 4.281 0 7.401-3.7005 3.12-3.7368 3.12-11.101 0-7.5461-3.0112-11.138-2.9749-3.5916-7.2196-3.5916-4.281 0-7.401 3.7368-3.12 3.7005-3.12 10.739z" />
    <path d="m232.58 323.52v18.307c-1.0412-1.1627-2.2305-2.1931-3.6875-2.9707-1.8928-1.0347-4.0503-1.5488-6.4434-1.5488-3.2562 0-6.2284.86377-8.8711 2.584-2.6521 1.7264-4.6428 4.2257-5.957 7.4492-1.3093 3.1868-1.9609 6.7375-1.9609 10.639 0 4.0016.71335 7.5715 2.1504 10.693v.002l.002.002c1.461 3.0952 3.5198 5.5344 6.1621 7.2793h.002c2.6638 1.7426 5.6002 2.6211 8.7637 2.6211 4.3476 0 7.7819-1.6942 10.275-4.8398v3.9688h7.0586v-54.186zm57.938 0v54.186h7.5312v-54.186zm152.92 0v54.186h7.0586v-3.9746c2.5911 3.1489 6.0011 4.8457 10.201 4.8457 4.7026 0 8.7819-1.8805 12.125-5.5703 3.3672-3.7163 5.0273-8.9593 5.0273-15.645 0-2.8278-.39314-5.4934-1.1836-7.9883-.78849-2.4887-1.891-4.6241-3.3106-6.3945l-.002-.002c-1.404-1.8044-3.215-3.2008-5.4082-4.1738l-.006-.002c-2.1673-.99547-4.4799-1.4941-6.916-1.4941-3.9855 0-7.3468 1.5604-10.057 4.4648v-18.252zm-209.86 1h5.4941v52.186h-5.0586v-6.0703l-.92188 1.4394c-2.3637 3.6978-5.7474 5.502-10.354 5.502-2.9792 0-5.7032-.81428-8.2148-2.457h-.002c-2.4834-1.6403-4.412-3.9164-5.8047-6.8652v-.002c-4e-4-.00086-.002-.001-.002-.002-1.3674-2.9722-2.0566-6.3901-2.0566-10.271 0-3.79.63033-7.2065 1.8848-10.26h.002c1.2496-3.0649 3.1028-5.3789 5.5781-6.9902 2.4848-1.6175 5.2436-2.4219 8.3242-2.4219 2.2507 0 4.2297.47722 5.9648 1.4258l.002.002h.002c1.753.93493 3.1646 2.1529 4.2559 3.6621l.90625 1.252zm57.938 0h5.5312v52.186h-5.5312zm152.92 0h5.5293v19.904l.89062-1.1172c2.6786-3.36 6.0197-5 10.166-5 2.3022 0 4.4644.46857 6.5039 1.4062h.004l.002.002c2.0601.91299 3.7298 2.2012 5.0332 3.877l.002.002.002.004c1.3348 1.6626 2.3842 3.6846 3.1426 6.0781.75745 2.3907 1.1367 4.9505 1.1367 7.6856 0 6.5204-1.6045 11.483-4.7676 14.975-3.1872 3.5177-6.945 5.2402-11.385 5.2402-4.4078 0-7.7779-1.7919-10.289-5.4766l-.91211-1.3398v5.9453h-5.0586zm-178.78 12.787c-5.4331 0-9.9254 1.8509-13.354 5.5274-3.4404 3.6896-5.1406 8.8659-5.1406 15.434 0 6.3517 1.6782 11.373 5.0703 14.965h.002v.002c3.4115 3.5609 8.0475 5.3418 13.785 5.3418 4.5555 0 8.3525-1.1133 11.33-3.3652 2.9703-2.2465 5.008-5.4178 6.0957-9.4473l.14844-.55664-7.3496-.9082h-.38282l-.11718.33008c-.96916 2.6947-2.2653 4.6098-3.8555 5.791-1.6025 1.1904-3.5271 1.7871-5.834 1.7871-3.1002 0-5.6248-1.0593-7.6914-3.2188-1.9516-2.0393-3.0424-5.0222-3.3535-8.8789h28.617l.0156-.48438c.0243-.77655.0371-1.3584.0371-1.7559 0-6.4465-1.6634-11.525-5.0312-15.143-3.3545-3.603-7.7271-5.4199-12.992-5.4199zm58.301 0c-3.3583 0-6.3291.46568-8.9102 1.4082-2.583.91893-4.5958 2.2632-5.9941 4.043-1.3902 1.7449-2.3708 4.0209-2.9629 6.8086l-.11133.52539 7.3594 1.0039.11133-.43164c.68464-2.6678 1.7215-4.4498 3.0391-5.416h.002v-.002c1.342-.98998 3.5108-1.5332 6.5234-1.5332 3.2146 0 5.5607.71855 7.1074 2.0859v.002c1.0819.95466 1.6797 2.6648 1.6797 5.248 0 .175-.0128.73214-.0274 1.3144-2.4351.81108-6.14 1.5376-11.213 2.1426h-.002c-2.5994.31582-4.5458.64212-5.8711.99219l-.004.002h-.002c-1.7888.49689-3.4119 1.2324-4.8613 2.207l-.004.004c-1.445.98867-2.6249 2.3105-3.5293 3.9434l-.002.002c-.88755 1.6229-1.3301 3.4293-1.3301 5.3906 0 3.3346 1.204 6.1478 3.5723 8.3144l.002.002c2.388 2.1594 5.7822 3.2129 10.096 3.2129 2.6188 0 5.0746-.43352 7.3594-1.3027v.002c2.1247-.7996 4.3061-2.1772 6.541-3.9941.23392 1.5108.54552 2.9543 1.1426 4.1484l.13867.27539h7.9805l-.41407-.74219c-.79717-1.4302-1.3331-2.9119-1.6133-4.4531-.24956-1.5241-.39258-5.388-.39258-11.447v-8.709c0-2.9148-.10057-4.9242-.33398-6.1172l-.002-.006v-.004c-.4001-1.8504-1.1089-3.4044-2.1348-4.6367-1.0434-1.2782-2.6357-2.2954-4.7461-3.0898-2.1381-.80493-4.8648-1.1934-8.1934-1.1934zm94.508 0c-5.4331 0-9.9254 1.8509-13.354 5.5274-3.4404 3.6896-5.1406 8.8659-5.1406 15.434 0 6.3517 1.6782 11.373 5.0703 14.965h.002v.002c3.4115 3.5609 8.0475 5.3418 13.785 5.3418 4.5555 0 8.3525-1.1133 11.33-3.3652 2.9703-2.2465 5.006-5.4178 6.0938-9.4473l.15039-.55664-7.3496-.9082h-.38281l-.11914.33008c-.96916 2.6947-2.2634 4.6098-3.8535 5.791-1.6024 1.1904-3.5271 1.7871-5.834 1.7871-3.1002 0-5.6248-1.0593-7.6914-3.2188-1.9516-2.0393-3.0424-5.0222-3.3535-8.8789h28.617l.0156-.48438c.0243-.77655.0371-1.3584.0371-1.7559 0-6.4465-1.6653-11.525-5.0332-15.143-3.3545-3.603-7.7251-5.4199-12.99-5.4199zm-74.83.8711 12.096 39.527h7.5762l7.3789-28.037 1.0371 4.584 6.2324 23.453h7.5371l12.357-39.527h-7.4024l-6.709 22.633-1.7031 5.7227-1.4707-5.6328-5.8633-22.723h-7.4824l-6.2324 22.938-.002.006c-.947 3.7509-1.2544 4.9842-1.5332 6.1055l-1.7793-6.4434-6.2324-22.605zm-77.979.1289c5.0382 0 9.084 1.6906 12.26 5.1016 3.1624 3.3966 4.7637 8.1855 4.7637 14.461 0 .2708-.0149.76412-.0273 1.2402h-28.771l.0293.52929c.2464 4.3119 1.476 7.6853 3.7305 10.041 2.2386 2.3392 5.0808 3.5273 8.4141 3.5273 2.482 0 4.6461-.6594 6.4297-1.9844 1.7056-1.267 3.0186-3.2758 4.0176-5.8848l5.7402.70899c-1.0726 3.5582-2.8587 6.3706-5.4961 8.3652-2.7787 2.1016-6.3332 3.1641-10.727 3.1641-5.5331 0-9.8469-1.6768-13.062-5.0332-3.1853-3.3739-4.7949-8.0999-4.7949-14.275 0-6.3961 1.636-11.281 4.8711-14.75 3.2473-3.4826 7.4142-5.2109 12.623-5.2109zm58.301 0c3.2501 0 5.8683.38594 7.8418 1.1289 2.0013.75342 3.4328 1.6951 4.3242 2.7871l.002.002v.002c.9064 1.0877 1.552 2.4806 1.9258 4.2051.2017 1.0328.3164 3.0339.3164 5.9219v8.709c0 6.078.12404 9.8982.40625 11.617l.002.004v.004c.25333 1.3933.81164 2.7166 1.4551 4.0176h-5.7442c-.5812-1.2399-1.0027-2.6458-1.1797-4.3047l-.0469-.44726h-.63476l-.13868.11914c-2.3861 2.0282-4.6757 3.4453-6.8555 4.2656v.002h-.002c-2.1655.82382-4.4952 1.2363-7.0039 1.2363-4.1504 0-7.2629-1.002-9.4219-2.9531l-.002-.002c-2.1774-1.993-3.2461-4.4763-3.2461-7.5742 0-1.8108.40236-3.4359 1.207-4.9082l.002-.002c.8361-1.5088 1.9029-2.7025 3.2129-3.5996l.004-.002c1.3552-.91071 2.8758-1.6002 4.5684-2.0703 1.2386-.32681 3.1568-.65215 5.7305-.96485 5.2904-.63095 9.1905-1.3808 11.75-2.2754l.32618-.11328.01-.34375c.0242-.89611.0352-1.4602.0352-1.7188 0-2.7378-.63448-4.7759-2.0195-5.998-1.791-1.5826-4.4043-2.3379-7.7676-2.3379-3.1298 0-5.5065.54241-7.1152 1.7285-1.4916 1.0938-2.5358 3.004-3.2559 5.5508l-5.4121-.73828c.57587-2.4105 1.4276-4.3973 2.6055-5.875l.002-.002v-.002c1.2621-1.6063 3.0952-2.8479 5.543-3.7188h.002l.002-.002c2.4489-.89478 5.305-1.3477 8.5723-1.3477zm94.508 0c5.0382 0 9.084 1.6906 12.26 5.1016 3.1624 3.3966 4.7637 8.1855 4.7637 14.461 0 .2708-.0149.76412-.0274 1.2402h-28.771l.0293.52929c.24639 4.3119 1.476 7.6853 3.7305 10.041 2.2386 2.3392 5.0808 3.5273 8.4141 3.5273 2.482 0 4.6461-.6594 6.4297-1.9844 1.7055-1.267 3.0186-3.2758 4.0176-5.8848l5.7402.70899c-1.0726 3.5582-2.8587 6.3706-5.4961 8.3652-2.7787 2.1016-6.3332 3.1641-10.727 3.1641-5.5331 0-9.8469-1.6768-13.062-5.0332-3.1853-3.3739-4.7949-8.0999-4.7949-14.275 0-6.3961 1.6361-11.281 4.8711-14.75 3.2473-3.4826 7.4142-5.2109 12.623-5.2109zm-73.48.8711h5.6934l6.0293 21.871 2.2852 8.2715.96875-.0176c.0893-.37942.76107-3.0534 1.9922-7.9297l.002-.008 6.0293-22.188h5.9414l5.6719 21.973 2.375 9.0977 2.7246-9.1523 6.4961-21.918h5.2949l-11.732 37.527h-6.0312l-6.0293-22.691-1.4863-6.5586-.9707-.0176-7.7031 29.268h-6.0644zm-79.256 3.498c-3.1106 0-5.7889 1.0619-7.9316 3.1543l-.002.002c-2.1246 2.0993-3.2978 4.9214-3.5215 8.377l-.0332.53125h22.594l-.0488-.54297c-.29563-3.3012-1.1327-5.8336-2.5801-7.5664l-.002-.002c-2.1629-2.6144-5.0356-3.9531-8.4746-3.9531zm152.81 0c-3.1106 0-5.7889 1.0619-7.9316 3.1543l-.002.002c-2.1246 2.0993-3.2977 4.9214-3.5215 8.377l-.0352.53125h22.594l-.0488-.54297c-.29563-3.3012-1.1308-5.8336-2.5781-7.5664l-.002-.002c-2.1629-2.6144-5.0356-3.9531-8.4746-3.9531zm41.902 0c-2.9994 0-5.6311 1.3385-7.7832 3.916-2.18 2.5864-3.2363 6.2933-3.2363 11.059 0 4.665.6143 8.0774 1.959 10.275 2.1218 3.4698 5.1047 5.2812 8.7715 5.2812 2.998 0 5.6305-1.3258 7.7832-3.8789l.002-.002c2.1836-2.6152 3.2344-6.4415 3.2344-11.422 0-5.0951-1.0086-8.9285-3.125-11.455-2.0578-2.4844-4.6347-3.7734-7.6055-3.7734zm-237.38.0371c-3.0385 0-5.6414 1.2726-7.6777 3.7363l-.002.002c-2.0461 2.5064-3.0156 6.3609-3.0156 11.527 0 5.0042 1.0525 8.8194 3.2402 11.389 2.1526 2.528 4.7724 3.8398 7.7461 3.8398 2.9896 0 5.5746-1.2463 7.6348-3.6582 2.1167-2.4738 3.1309-6.1686 3.1309-11.027 0-5.3368-1.0174-9.3239-3.1602-11.926-2.1078-2.5594-4.7834-3.8828-7.8965-3.8828zm42.664.96289c3.187 0 5.7082 1.1769 7.7051 3.5918h.002v.002c1.1774 1.4087 1.9161 3.6054 2.2461 6.4707h-20.293c.29767-2.9867 1.2888-5.3984 3.1094-7.1973 1.9685-1.9212 4.3439-2.8672 7.2305-2.8672zm152.81 0c3.187 0 5.7082 1.1769 7.7051 3.5918h.002v.002c1.1774 1.4087 1.916 3.6054 2.2461 6.4707h-20.293c.29768-2.9867 1.2888-5.3984 3.1094-7.1973 1.9685-1.9212 4.3439-2.8672 7.2305-2.8672zm41.902 0c2.6888 0 4.9272 1.1057 6.8359 3.4102v.002h.002c1.8967 2.2623 2.8926 5.8522 2.8926 10.816 0 4.8384-1.0262 8.4122-3.002 10.779-2.0074 2.3808-4.3077 3.5234-7.0176 3.5234-3.3472 0-5.9282-1.5488-7.918-4.8027-1.1707-1.9136-1.8125-5.1797-1.8125-9.7539 0-4.6182 1.0226-8.0684 3.002-10.416l.002-.002c2.0079-2.4048 4.3071-3.5566 7.0156-3.5566zm-237.38.0371c2.8367 0 5.1675 1.143 7.123 3.5176 1.9205 2.3321 2.9336 6.0826 2.9336 11.291 0 4.719-.99243 8.1586-2.8906 10.377v.002c-1.9063 2.2318-4.1566 3.3066-6.875 3.3066-2.6859 0-4.9769-1.1307-6.9844-3.4883-1.9723-2.3163-3.002-5.8765-3.002-10.74 0-5.0386.96637-8.6584 2.7891-10.893l.002-.002c1.8814-2.2752 4.139-3.3711 6.9043-3.3711zm109.7 13.412-.68945.28125c-2.3001.9388-5.8278 1.7614-10.547 2.4356h-.002c-2.7041.38979-4.6215.81888-5.8242 1.3418-1.1894.51711-2.1342 1.2987-2.793 2.3242-.65667.99815-.99023 2.132-.99023 3.3574 0 1.8664.72812 3.4851 2.127 4.7285l.002.002h.002c1.449 1.2646 3.5171 1.8652 6.1328 1.8652 2.5875 0 4.9166-.56281 6.9551-1.6953l.002-.002h.002c2.0368-1.1567 3.5587-2.7523 4.5215-4.7539v-.002c.75553-1.5892 1.1016-3.8254 1.1016-6.7442zm-1 1.416v1.7226c0 2.8376-.35664 4.953-1.0039 6.3145-.8746 1.8175-2.2311 3.2446-4.1094 4.3125-1.8797 1.0443-4.0255 1.5703-6.4688 1.5703-2.4621 0-4.2612-.55899-5.4727-1.6152l-.002-.002c-1.2118-1.0781-1.7891-2.3631-1.7891-3.9785 0-1.0481.27354-1.9686.82617-2.8086v-.002l.002-.002c.55042-.85866 1.3215-1.5036 2.3555-1.9531 1.0224-.44452 2.9012-.88535 5.5664-1.2695 4.399-.62842 7.6803-1.3932 10.096-2.2891z" fill="#5564da" />
  </g>
  <g fill="#333">
    <path d="m201.68 275.31-127.64-55.5v-30.734l127.64-55.246v36.196l-89.028 34.037 89.028 35.307z" />
    <path d="m202.18 133.06-128.64 55.68v31.391l128.64 55.934v-37.043l-88.15-34.959 88.15-33.701zm-1 1.5234v35.09l-89.906 34.373 89.906 35.654v34.838l-126.64-55.064v-30.078z" fill="#badf43" />
    <path d="m213.49 299.69 46.102-192.53h26.797l-46.61 192.53zm84.71-24.257v-35.942l89.155-35.053-89.155-34.672v-35.688l127.76 55.246v30.48z" />
    <path d="m259.19 106.66-46.34 193.54h27.316l46.852-193.54zm.78906 1h25.77l-46.369 191.54h-25.264zm37.715 25.662v36.791l88.283 34.334-88.283 34.707v37.047l128.76-56.062v-31.137zm1 1.5234 126.76 54.812v29.824l-126.76 55.191v-34.838l90.027-35.395-90.027-35.012z" fill="#5564da" />
  </g>
</svg>